<?xml version="1.0" encoding="utf-8"?>
<!-- Generator: Adobe Illustrator 16.0.0, SVG Export Plug-In . SVG Version: 6.00 Build 0)  -->
<!DOCTYPE svg PUBLIC "-//W3C//DTD SVG 1.1//EN" "http://www.w3.org/Graphics/SVG/1.1/DTD/svg11.dtd">
<svg version="1.1" xmlns="http://www.w3.org/2000/svg" xmlns:xlink="http://www.w3.org/1999/xlink" x="0px" y="0px"
	 width="164.706px" height="350px" viewBox="2.647 -135 164.706 350" enable-background="new 2.647 -135 164.706 350"
	 xml:space="preserve">
<g id="Livello_2">
	<rect x="45" y="-45" fill="#FFFFFF" width="80" height="170"/>
</g>
<g id="svg2" xmlns:rdf="http://www.w3.org/1999/02/22-rdf-syntax-ns#" xmlns:inkscape="http://www.inkscape.org/namespaces/inkscape" xmlns:dc="http://purl.org/dc/elements/1.1/" xmlns:cc="http://creativecommons.org/ns#" xmlns:sodipodi="http://sodipodi.sourceforge.net/DTD/sodipodi-0.dtd" xmlns:svg="http://www.w3.org/2000/svg" inkscape:version="0.48.5 r10040" sodipodi:docname="logo5.svg">
	
		<sodipodi:namedview  borderopacity="1.0" gridtolerance="20" showgrid="true" inkscape:cy="67.25654" bordercolor="#666666" inkscape:zoom="2.8" pagecolor="#1bc8ff" inkscape:cx="41.193994" id="base" inkscape:pageopacity="1" inkscape:pageshadow="2" inkscape:window-x="3250" inkscape:window-y="253" inkscape:window-height="423" inkscape:document-units="px" inkscape:window-maximized="0" inkscape:snap-from-guide="true" inkscape:window-width="708" inkscape:current-layer="layer1">
		
			<inkscape:grid  type="xygrid" empspacing="5" visible="true" dotted="false" enabled="false" id="grid3010" snapvisiblegridlinesonly="false">
			</inkscape:grid>
	</sodipodi:namedview>
	<g id="layer3" inkscape:label="Layer#1" inkscape:groupmode="layer">
	</g>
	<g id="layer2" inkscape:label="Layer" inkscape:groupmode="layer" opacity="0.1944">
	</g>
	<g>
		<path fill="#E5E5E5" d="M36.278-78.293v-15.176H142.51v15.176h-37.863c5.008,6.525,7.512,14.114,7.512,22.764
			c0,10.471-3.707,19.412-11.117,26.824c-7.41,7.41-16.352,11.116-26.823,11.116c-10.472,0-19.414-3.706-26.824-11.116
			c-7.412-7.412-11.117-16.353-11.117-26.824c0-8.65,2.504-16.239,7.512-22.764H36.278z M90.305-71.616
			c-4.451-4.452-9.814-6.677-16.086-6.677c-6.273,0-11.636,2.225-16.087,6.677c-4.452,4.451-6.677,9.813-6.677,16.087
			c0,6.272,2.225,11.634,6.677,16.086c4.451,4.451,9.813,6.678,16.087,6.678c6.272,0,11.635-2.227,16.086-6.678
			c4.451-4.452,6.678-9.814,6.678-16.086C96.982-61.802,94.756-67.165,90.305-71.616z"/>
		<path fill="#E5E5E5" d="M96.982,27.94c0-6.273-2.227-11.636-6.678-16.087c-4.451-4.452-9.814-6.677-16.086-6.677h-37.94V-10h75.88
			V5.176h-7.512c5.008,6.525,7.512,14.114,7.512,22.764H96.982z"/>
		<path fill="#E5E5E5" d="M36.278,35.528h75.88v15.175h-75.88V35.528z M127.334,35.528h15.176v15.175h-15.176V35.528z"/>
		<path fill="#E5E5E5" d="M62.457,115.81l-7.815,13.052c-2.58-1.62-4.983-3.542-7.209-5.768
			c-7.436-7.437-11.154-16.39-11.154-26.861s3.705-19.414,11.117-26.824c7.41-7.411,16.352-11.116,26.824-11.116
			c10.471,0,19.413,3.705,26.823,11.116c7.41,7.41,11.117,16.353,11.117,26.824s-3.693,19.425-11.078,26.861
			c-2.277,2.226-4.705,4.147-7.285,5.768L85.98,115.81c1.518-0.962,2.959-2.125,4.324-3.49c4.451-4.452,6.678-9.815,6.678-16.087
			c0-6.273-2.227-11.636-6.678-16.087c-4.451-4.452-9.814-6.678-16.086-6.678c-6.273,0-11.636,2.226-16.087,6.678
			c-4.452,4.451-6.677,9.813-6.677,16.087c0,6.271,2.225,11.635,6.677,16.087C59.497,113.685,60.939,114.848,62.457,115.81z"/>
		<path fill="#E5E5E5" d="M36.278,175.148c0-10.472,3.705-19.414,11.117-26.824c7.41-7.411,16.352-11.116,26.824-11.116
			c10.471,0,19.413,3.705,26.823,11.116c7.41,7.41,11.117,16.353,11.117,26.824s-3.707,19.412-11.117,26.823
			c-7.41,7.41-16.352,11.117-26.823,11.117c-10.472,0-19.414-3.707-26.824-11.117C39.983,194.561,36.278,185.62,36.278,175.148z
			 M96.982,175.148c0-6.273-2.227-11.636-6.678-16.087c-4.451-4.452-9.814-6.678-16.086-6.678c-6.273,0-11.636,2.226-16.087,6.678
			c-4.452,4.451-6.677,9.813-6.677,16.087c0,6.271,2.225,11.635,6.677,16.087c4.451,4.45,9.813,6.677,16.087,6.677
			c6.272,0,11.635-2.227,16.086-6.677C94.756,186.783,96.982,181.42,96.982,175.148z"/>
	</g>
</g>
<g id="IMAGE_1_">
	<g enable-background="new    ">
		<path fill="none" stroke="#D4D4D4" stroke-miterlimit="10" d="M45.354-130.683v34.653h-9.011v-34.653H45.354z"/>
		<path fill="none" stroke="#D4D4D4" stroke-miterlimit="10" d="M76.774-130.683v34.653h-7.877l-0.011-23.395L65.751-96.03h-5.586
			l-3.307-22.859L56.847-96.03h-7.876v-34.653h11.66c0.346,2.083,0.703,4.539,1.07,7.367l1.279,8.814l2.071-16.181H76.774z"/>
		<path fill="none" stroke="#D4D4D4" stroke-miterlimit="10" d="M95.967-130.683l5.154,34.653h-9.209l-0.484-6.229h-3.223
			l-0.541,6.229h-9.317l4.596-34.653H95.967z M91.191-108.402c-0.455-3.925-0.912-8.776-1.371-14.554
			c-0.918,6.635-1.496,11.487-1.73,14.554H91.191z"/>
		<path fill="none" stroke="#D4D4D4" stroke-miterlimit="10" d="M123.327-117.926h-9.011v-3.146c0-1.983-0.086-3.225-0.257-3.724
			s-0.578-0.749-1.22-0.749c-0.557,0-0.935,0.214-1.135,0.642c-0.2,0.428-0.3,1.527-0.3,3.296v16.631c0,1.556,0.1,2.579,0.3,3.071
			c0.2,0.493,0.6,0.739,1.199,0.739c0.655,0,1.102-0.278,1.337-0.835s0.354-1.641,0.354-3.253v-4.109h-1.819v-5.266h10.552v18.6
			h-5.662l-0.834-2.483c-0.613,1.07-1.389,1.873-2.323,2.408c-0.936,0.535-2.039,0.802-3.31,0.802c-1.514,0-2.932-0.367-4.252-1.102
			c-1.321-0.735-2.324-1.645-3.01-2.729s-1.114-2.222-1.285-3.414c-0.171-1.191-0.257-2.979-0.257-5.361v-10.295
			c0-3.31,0.179-5.715,0.535-7.213c0.356-1.499,1.381-2.872,3.071-4.121c1.691-1.248,3.878-1.873,6.561-1.873
			c2.64,0,4.83,0.542,6.57,1.626c1.741,1.085,2.876,2.373,3.403,3.864c0.528,1.491,0.792,3.657,0.792,6.496V-117.926z"/>
		<path fill="none" stroke="#D4D4D4" stroke-miterlimit="10" d="M126.815-130.683h15.025v6.935h-6.015v6.571h5.63v6.592h-5.63v7.62
			h6.614v6.935h-15.625V-130.683z"/>
	</g>
</g>
<g id="pallini">
	<circle fill="#E5E5E5" cx="74.188" cy="-55.553" r="13.602"/>
	<circle fill="#E5E5E5" cx="74.188" cy="96.124" r="13.602"/>
	<circle fill="#E5E5E5" cx="74.188" cy="175.086" r="13.602"/>
	<circle fill="#E5E5E5" cx="131.334" cy="43.085" r="13.603"/>
</g>
</svg>
